{
  "source": "C:\\Users\\Peter\\Desktop\\stuff\\MIUN\\quantitative_research\\video_compression\\videos\\BVI-HD\\BVI-HD_CDVL_videos\\ORIG\\CarpetCircleFast_1920x1080_60fps.mp4",
  "output": "C:\\Users\\Peter\\Desktop\\stuff\\MIUN\\quantitative_research\\video_compression\\compressed_videos\\BVI-HD\\h264\\2\\CarpetCircleFast_1920x1080_60fps_h264.mp4",
  "codec": "h264",
  "ok": "Input #0, mov,mp4,m4a,3gp,3g2,mj2, from 'C:\\Users\\Peter\\Desktop\\stuff\\MIUN\\quantitative_research\\video_compression\\videos\\BVI-HD\\BVI-HD_CDVL_videos\\ORIG\\CarpetCircleFast_1920x1080_60fps.mp4':\n  Metadata:\n    major_brand     : isom\n    minor_version   : 512\n    compatible_brands: isomiso2avc1mp41\n    encoder         : Lavf54.28.101\n  Duration: 00:00:05.00, start: 0.000000, bitrate: 324759 kb/s\n  Stream #0:0[0x1](und): Video: h264 (High 4:4:4 Predictive) (avc1 / 0x31637661), yuv420p(progressive), 1920x1080, 324754 kb/s, 60 fps, 60 tbr, 60 tbn (default)\n    Metadata:\n      handler_name    : VideoHandler\n      vendor_id       : [0][0][0][0]\n[out#0/mp4 @ 00000171d4f89b40] Codec AVOption b:a (set bitrate (in bits/s)) has not been used for any stream. The most likely reason is either wrong type (e.g. a video option with no video streams) or that it is a private option of some decoder which was not actually used for any stream.\nStream mapping:\n  Stream #0:0 -> #0:0 (h264 (native) -> h264 (libx264))\nPress [q] to stop, [?] for help\n[libx264 @ 00000171d59fd300] using cpu capabilities: MMX2 SSE2Fast SSSE3 SSE4.2 AVX FMA3 BMI2 AVX2\n[libx264 @ 00000171d59fd300] profile High, level 5.0, 4:2:0, 8-bit\n[libx264 @ 00000171d59fd300] 264 - core 165 r3222 b35605a - H.264/MPEG-4 AVC codec - Copyleft 2003-2025 - http://www.videolan.org/x264.html - options: cabac=1 ref=5 deblock=1:0:0 analyse=0x3:0x113 me=hex subme=8 psy=1 psy_rd=1.00:0.00 mixed_ref=1 me_range=16 chroma_me=1 trellis=2 8x8dct=1 cqm=0 deadzone=21,11 fast_pskip=1 chroma_qp_offset=-2 threads=18 lookahead_threads=3 sliced_threads=0 nr=0 decimate=1 interlaced=0 bluray_compat=0 constrained_intra=0 bframes=3 b_pyramid=2 b_adapt=1 b_bias=0 direct=3 weightb=1 open_gop=0 weightp=2 keyint=250 keyint_min=25 scenecut=40 intra_refresh=0 rc_lookahead=50 rc=cbr mbtree=1 bitrate=2000 ratetol=1.0 qcomp=0.60 qpmin=0 qpmax=69 qpstep=4 vbv_maxrate=2000 vbv_bufsize=2000 nal_hrd=none filler=0 ip_ratio=1.40 aq=1:1.00\nOutput #0, mp4, to 'C:\\Users\\Peter\\Desktop\\stuff\\MIUN\\quantitative_research\\video_compression\\compressed_videos\\BVI-HD\\h264\\2\\CarpetCircleFast_1920x1080_60fps_h264.mp4':\n  Metadata:\n    major_brand     : isom\n    minor_version   : 512\n    compatible_brands: isomiso2avc1mp41\n    encoder         : Lavf62.3.100\n  Stream #0:0(und): Video: h264 (avc1 / 0x31637661), yuv420p(tv, progressive), 1920x1080, q=2-31, 2000 kb/s, 60 fps, 15360 tbn (default)\n    Metadata:\n      encoder         : Lavc62.11.100 libx264\n      handler_name    : VideoHandler\n      vendor_id       : [0][0][0][0]\n    Side data:\n      cpb: bitrate max/min/avg: 2000000/0/2000000 buffer size: 2000000 vbv_delay: N/A\nframe=    0 fps=0.0 q=0.0 size=       0KiB time=N/A bitrate=N/A speed=N/A elapsed=0:00:00.52    \nframe=    0 fps=0.0 q=0.0 size=       0KiB time=N/A bitrate=N/A speed=N/A elapsed=0:00:01.03    \nframe=   30 fps= 19 q=42.0 size=       0KiB time=00:00:00.46 bitrate=   0.8kbits/s speed=0.299x elapsed=0:00:01.56    \nframe=   65 fps= 31 q=41.0 size=       0KiB time=00:00:01.01 bitrate=   0.4kbits/s speed=0.485x elapsed=0:00:02.09    \nframe=   94 fps= 35 q=41.0 size=     256KiB time=00:00:01.46 bitrate=1430.1kbits/s speed=0.55x elapsed=0:00:02.66    \nframe=  122 fps= 38 q=41.0 size=     256KiB time=00:00:02.00 bitrate=1048.8kbits/s speed=0.619x elapsed=0:00:03.23    \nframe=  149 fps= 40 q=40.0 size=     256KiB time=00:00:02.45 bitrate= 856.1kbits/s speed=0.652x elapsed=0:00:03.75    \nframe=  180 fps= 42 q=40.0 size=     512KiB time=00:00:02.96 bitrate=1413.9kbits/s speed=0.695x elapsed=0:00:04.26    \nframe=  209 fps= 44 q=41.0 size=     512KiB time=00:00:03.45 bitrate=1215.9kbits/s speed=0.719x elapsed=0:00:04.79    \nframe=  230 fps= 43 q=41.0 size=     512KiB time=00:00:03.80 bitrate=1103.9kbits/s speed=0.714x elapsed=0:00:05.32    \n[mp4 @ 00000171d56100c0] Starting second pass: moving the moov atom to the beginning of the file\n[out#0/mp4 @ 00000171d4f89b40] video:906KiB audio:0KiB subtitle:0KiB other streams:0KiB global headers:0KiB muxing overhead: 0.457733%\nframe=  300 fps= 52 q=-1.0 Lsize=     910KiB time=00:00:04.96 bitrate=1501.3kbits/s speed=0.854x elapsed=0:00:05.81    \n[libx264 @ 00000171d59fd300] frame I:2     Avg QP:36.11  size: 12564\n[libx264 @ 00000171d59fd300] frame P:91    Avg QP:36.85  size:  6062\n[libx264 @ 00000171d59fd300] frame B:207   Avg QP:38.56  size:  1692\n[libx264 @ 00000171d59fd300] consecutive B-frames:  5.0%  4.0% 15.0% 76.0%\n[libx264 @ 00000171d59fd300] mb I  I16..4: 66.8% 33.2%  0.0%\n[libx264 @ 00000171d59fd300] mb P  I16..4: 11.4%  3.2%  0.0%  P16..4: 22.0%  0.6%  0.5%  0.0%  0.0%    skip:62.3%\n[libx264 @ 00000171d59fd300] mb B  I16..4:  0.1%  0.0%  0.0%  B16..8: 25.0%  0.1%  0.0%  direct: 0.2%  skip:74.6%  L0:46.1% L1:53.6% BI: 0.2%\n[libx264 @ 00000171d59fd300] 8x8 transform intra:23.4% inter:99.5%\n[libx264 @ 00000171d59fd300] direct mvs  spatial:95.2% temporal:4.8%\n[libx264 @ 00000171d59fd300] coded y,uvDC,uvAC intra: 4.9% 23.8% 0.0% inter: 1.1% 2.7% 0.0%\n[libx264 @ 00000171d59fd300] i16 v,h,dc,p: 33% 22%  8% 36%\n[libx264 @ 00000171d59fd300] i8 v,h,dc,ddl,ddr,vr,hd,vl,hu:  5%  8% 42%  7%  9%  7% 10%  6%  6%\n[libx264 @ 00000171d59fd300] i4 v,h,dc,ddl,ddr,vr,hd,vl,hu:  1%  4% 26% 13%  9% 10% 20%  3% 13%\n[libx264 @ 00000171d59fd300] i8c dc,h,v,p: 85%  2% 10%  3%\n[libx264 @ 00000171d59fd300] Weighted P-Frames: Y:4.4% UV:4.4%\n[libx264 @ 00000171d59fd300] ref P L0: 55.3% 11.4% 19.5%  7.7%  5.9%  0.2%\n[libx264 @ 00000171d59fd300] ref B L0: 91.1%  6.2%  2.0%  0.7%\n[libx264 @ 00000171d59fd300] ref B L1: 97.7%  2.3%\n[libx264 @ 00000171d59fd300] kb/s:1483.31\n",
  "seconds": 6.033243894577026,
  "probe_out": {}
}